# xmcd CD database file
#
# Track frame offsets:
#	150
#	9381
#	29727
#	40878
#	57854
#	73333
#	88644
#	105779
#	117391
#	128752
#	140859
#	153223
#	172802
#	191026
#	207077
#	224880
#	238294
#	254126
#	273800
#	286867
#	299683
#	315131
#	331393
#
# Disc length: 4657 seconds
#
# Revision: 0
# Processed by: cddbd v1.5.1PL0 Copyright (c) Steve Scherf et al.
# Submitted via: CDex 1.51
#
DISCID=62122f17
DTITLE=Blossom Dearie - Give Him The Ooh-La-La (1-12) Comden and Green (13-22)
DYEAR=1900
DGENRE=Jazz
TTITLE0=Blossom Dearie - Just One of Those Things
TTITLE1=Blossom Dearie - Like Someone in Love
TTITLE2=Blossom Dearie - Between the Devil and the Deep
TTITLE3=Blossom Dearie - They Say It's Spring
TTITLE4=Blossom Dearie - Try Your Wings
TTITLE5=Blossom Dearie - Bang Goes the Drum (And You're
TTITLE6=Blossom Dearie - The Riviera
TTITLE7=Blossom Dearie - The Middle of Love
TTITLE8=Blossom Dearie - Plus Je T'Embrasse
TTITLE9=Blossom Dearie - Give Him the Ooh-La-La
TTITLE10=Blossom Dearie - Let Me Love You
TTITLE11=Blossom Dearie - I Walk a Little Faster
TTITLE12=Blossom Dearie - Lucky to Be Me
TTITLE13=Blossom Dearie - Just in Time
TTITLE14=Blossom Dearie - Some Other Time
TTITLE15=Blossom Dearie - Dance Only With Me
TTITLE16=Blossom Dearie - I Like Myself
TTITLE17=Blossom Dearie - The Party's Over
TTITLE18=Blossom Dearie - How Will He Know
TTITLE19=Blossom Dearie - It's Love
TTITLE20=Blossom Dearie - Hold Me, Hold Me, Hold Me
TTITLE21=Blossom Dearie - Lonely Town
TTITLE22=Blossom Dearie - Peel Me a Grape
EXTD=
EXTT0=
EXTT1=
EXTT2=
EXTT3=
EXTT4=
EXTT5=
EXTT6=
EXTT7=
EXTT8=
EXTT9=
EXTT10=
EXTT11=
EXTT12=
EXTT13=
EXTT14=
EXTT15=
EXTT16=
EXTT17=
EXTT18=
EXTT19=
EXTT20=
EXTT21=
EXTT22=
PLAYORDER=
